# xmcd
#
# Track frame offsets:
#	150
#	11332
#	23189
#	35274
#	49979
#	65529
#	78377
#	94853
#	108594
#	119059
#	126080
#	141976
#	151335
#	161175
#	172636
#
# Disc length: 2589 seconds
# Revision: 0
# Processed by: cddbd v1.5.2PL0 Copyright (c) Steve Scherf et al.
# Submitted via: dBpowerAMP V12.0
#
DISCID=c50a1b0f
DTITLE=Doris Day - With A Smile And A Song Disc 1
DYEAR=2012
DGENRE=Pop
TTITLE0=On Moonlight Bay
TTITLE1=Till We Meet Again
TTITLE2=It Had To Be You
TTITLE3=I'll See You In My Dreams
TTITLE4=It's Magic
TTITLE5=By The Light Of The Silv'ry Moon
TTITLE6=Secret Love
TTITLE7=I Speak To The Stars
TTITLE8=Love Me Or Leave Me
TTITLE9=At Sundown
TTITLE10=Shaking The Blues Away
TTITLE11=Whatever Will Be Will Be (Que Sera, Sera)
TTITLE12=Pillow Talk
TTITLE13=My Romance
TTITLE14=Little Girl Blue
EXTD=
EXTT0=
EXTT1=
EXTT2=
EXTT3=
EXTT4=
EXTT5=
EXTT6=
EXTT7=
EXTT8=
EXTT9=
EXTT10=
EXTT11=
EXTT12=
EXTT13=
EXTT14=
PLAYORDER=
